<svg width="128" height="128" viewBox="0 0 128 128" fill="none" xmlns="http://www.w3.org/2000/svg">
<rect width="128" height="128" rx="10" fill="black"/>
<path d="M21.34 84.6C17.14 84.6 13.64 84.02 10.84 82.86C8.08 81.66 6 80.12 4.6 78.24C3.24 76.32 2.52 74.3 2.44 72.18C2.44 71.82 2.56 71.52 2.8 71.28C3.04 71.04 3.34 70.92 3.7 70.92H13.24C13.8 70.92 14.24 71.02 14.56 71.22C14.88 71.38 15.22 71.62 15.58 71.94C15.94 72.38 16.36 72.8 16.84 73.2C17.32 73.56 17.94 73.86 18.7 74.1C19.46 74.3 20.34 74.4 21.34 74.4C23.18 74.4 24.6 74.16 25.6 73.68C26.6 73.16 27.1 72.46 27.1 71.58C27.1 70.9 26.82 70.34 26.26 69.9C25.74 69.46 24.84 69.06 23.56 68.7C22.28 68.34 20.54 67.96 18.34 67.56C15.26 67.04 12.6 66.28 10.36 65.28C8.12 64.24 6.4 62.86 5.2 61.14C4.04 59.38 3.46 57.22 3.46 54.66C3.46 52.06 4.18 49.76 5.62 47.76C7.1 45.76 9.14 44.2 11.74 43.08C14.38 41.96 17.44 41.4 20.92 41.4C23.8 41.4 26.34 41.78 28.54 42.54C30.78 43.3 32.66 44.3 34.18 45.54C35.7 46.74 36.86 48.04 37.66 49.44C38.46 50.84 38.88 52.18 38.92 53.46C38.92 53.82 38.78 54.14 38.5 54.42C38.26 54.66 37.98 54.78 37.66 54.78H27.64C27.16 54.78 26.74 54.7 26.38 54.54C26.06 54.38 25.76 54.12 25.48 53.76C25.28 53.2 24.78 52.7 23.98 52.26C23.18 51.82 22.16 51.6 20.92 51.6C19.56 51.6 18.52 51.84 17.8 52.32C17.08 52.76 16.72 53.42 16.72 54.3C16.72 54.9 16.94 55.42 17.38 55.86C17.82 56.3 18.6 56.7 19.72 57.06C20.84 57.38 22.4 57.74 24.4 58.14C28.2 58.7 31.26 59.5 33.58 60.54C35.94 61.58 37.66 62.94 38.74 64.62C39.82 66.3 40.36 68.4 40.36 70.92C40.36 73.76 39.54 76.2 37.9 78.24C36.26 80.28 34 81.86 31.12 82.98C28.28 84.06 25.02 84.6 21.34 84.6ZM47.0613 84C46.6613 84 46.3013 83.86 45.9813 83.58C45.6613 83.26 45.5013 82.88 45.5013 82.44V43.56C45.5013 43.12 45.6613 42.76 45.9813 42.48C46.3013 42.16 46.6613 42 47.0613 42H64.1613C69.6013 42 73.8613 43.24 76.9413 45.72C80.0613 48.2 81.6213 51.66 81.6213 56.1C81.6213 58.9 80.9813 61.28 79.7013 63.24C78.4213 65.2 76.7413 66.74 74.6613 67.86L82.4613 82.02C82.5813 82.26 82.6413 82.48 82.6413 82.68C82.6413 83.04 82.5213 83.36 82.2813 83.64C82.0413 83.88 81.7413 84 81.3813 84H71.2413C70.4813 84 69.9013 83.82 69.5013 83.46C69.1013 83.06 68.8413 82.7 68.7213 82.38L62.7213 70.02H58.4013V82.44C58.4013 82.88 58.2413 83.26 57.9213 83.58C57.6413 83.86 57.2813 84 56.8413 84H47.0613ZM58.4013 60.12H64.1013C65.5013 60.12 66.5413 59.74 67.2213 58.98C67.9013 58.18 68.2413 57.2 68.2413 56.04C68.2413 54.84 67.9013 53.82 67.2213 52.98C66.5813 52.14 65.5413 51.72 64.1013 51.72H58.4013V60.12ZM89.4831 84C89.0831 84 88.7231 83.86 88.4031 83.58C88.0831 83.26 87.9231 82.88 87.9231 82.44V43.56C87.9231 43.12 88.0831 42.76 88.4031 42.48C88.7231 42.16 89.0831 42 89.4831 42H107.003C110.483 42 113.503 42.52 116.063 43.56C118.663 44.6 120.683 46.18 122.123 48.3C123.563 50.42 124.283 53.08 124.283 56.28C124.283 59.48 123.563 62.12 122.123 64.2C120.683 66.24 118.663 67.74 116.063 68.7C113.503 69.66 110.483 70.14 107.003 70.14H101.303V82.44C101.303 82.88 101.143 83.26 100.823 83.58C100.543 83.86 100.183 84 99.7431 84H89.4831ZM101.063 60.48H106.703C107.863 60.48 108.843 60.14 109.643 59.46C110.483 58.74 110.903 57.64 110.903 56.16C110.903 55.04 110.583 54.02 109.943 53.1C109.303 52.18 108.223 51.72 106.703 51.72H101.063V60.48Z" fill="white"/>
</svg>
